<svg width="729" height="224" viewBox="0 0 729 224" fill="none" xmlns="http://www.w3.org/2000/svg">
<path d="M280.542 121.276V130.139H262.898V173.97H251.88V130.139H234.156V121.276H280.542Z" fill="black"/>
<path d="M307.724 174.768C303.519 174.768 299.847 173.943 296.706 172.293C293.619 170.643 291.224 168.275 289.521 165.188C287.818 162.101 286.966 158.375 286.966 154.01C286.966 149.646 287.818 145.92 289.521 142.833C291.224 139.746 293.593 137.377 296.627 135.727C299.714 134.077 303.227 133.252 307.165 133.252C311.21 133.252 314.643 134.077 317.464 135.727C320.285 137.324 322.441 139.533 323.931 142.354C325.422 145.122 326.167 148.289 326.167 151.855C326.167 152.919 326.14 153.93 326.087 154.889C326.034 155.847 325.954 156.698 325.847 157.443H293.992V149.859H321.057L315.788 151.775C315.788 148.422 315.016 145.84 313.472 144.03C311.982 142.221 309.853 141.316 307.085 141.316C305.063 141.316 303.306 141.795 301.816 142.753C300.379 143.711 299.288 145.148 298.543 147.064C297.797 148.927 297.425 151.296 297.425 154.17C297.425 156.991 297.824 159.333 298.622 161.196C299.474 163.005 300.645 164.363 302.135 165.268C303.679 166.172 305.515 166.625 307.644 166.625C309.986 166.625 311.876 166.172 313.313 165.268C314.75 164.363 315.868 163.112 316.666 161.515L325.368 164.868C324.517 166.944 323.213 168.727 321.456 170.218C319.753 171.708 317.704 172.852 315.309 173.651C312.967 174.396 310.439 174.768 307.724 174.768Z" fill="black"/>
<path d="M354.34 133.252C357.906 133.252 360.913 133.784 363.361 134.849C365.863 135.86 367.859 137.271 369.349 139.08C370.893 140.837 371.984 142.806 372.623 144.989L362.403 148.661C361.871 146.266 360.966 144.456 359.689 143.232C358.411 142.008 356.681 141.396 354.499 141.396C352.477 141.396 350.747 141.875 349.31 142.833C347.873 143.738 346.781 145.148 346.036 147.064C345.291 148.927 344.919 151.269 344.919 154.09C344.919 156.911 345.291 159.253 346.036 161.116C346.835 162.979 347.952 164.363 349.39 165.268C350.88 166.172 352.61 166.625 354.579 166.625C356.176 166.625 357.533 166.359 358.651 165.826C359.769 165.241 360.673 164.416 361.365 163.351C362.111 162.287 362.616 161.009 362.882 159.519L372.782 162.713C372.197 165.108 371.106 167.21 369.509 169.02C367.912 170.83 365.863 172.24 363.361 173.251C360.86 174.263 357.959 174.768 354.659 174.768C350.561 174.768 346.941 173.943 343.801 172.293C340.661 170.643 338.239 168.275 336.536 165.188C334.832 162.101 333.981 158.375 333.981 154.01C333.981 149.646 334.832 145.92 336.536 142.833C338.239 139.746 340.634 137.377 343.721 135.727C346.808 134.077 350.348 133.252 354.34 133.252Z" fill="black"/>
<path d="M381.457 173.97V116.566H392.395V140.837C393.673 138.282 395.429 136.393 397.665 135.168C399.9 133.891 402.428 133.252 405.249 133.252C408.017 133.252 410.465 133.784 412.594 134.849C414.777 135.914 416.48 137.537 417.704 139.719C418.982 141.848 419.62 144.536 419.62 147.783V173.97H408.682V150.976C408.682 147.517 408.017 145.148 406.686 143.871C405.356 142.54 403.653 141.875 401.577 141.875C400.033 141.875 398.543 142.247 397.106 142.993C395.722 143.684 394.578 144.855 393.673 146.505C392.821 148.102 392.395 150.231 392.395 152.893V173.97H381.457Z" fill="black"/>
<path d="M431.135 173.97V134.051H440.955L441.594 146.026L440.237 144.749C440.875 142.141 441.887 139.985 443.271 138.282C444.654 136.579 446.331 135.328 448.3 134.53C450.323 133.678 452.532 133.252 454.927 133.252C457.695 133.252 460.143 133.784 462.272 134.849C464.454 135.914 466.158 137.537 467.382 139.719C468.659 141.848 469.298 144.536 469.298 147.783V173.97H458.36V150.897C458.36 147.49 457.695 145.148 456.364 143.871C455.033 142.54 453.304 141.875 451.175 141.875C449.684 141.875 448.221 142.247 446.783 142.993C445.4 143.684 444.255 144.829 443.35 146.426C442.499 148.022 442.073 150.151 442.073 152.813V173.97H431.135Z" fill="black"/>
<path d="M499.016 133.252C503.061 133.252 506.601 134.077 509.635 135.727C512.722 137.377 515.117 139.746 516.82 142.833C518.577 145.92 519.455 149.646 519.455 154.01C519.455 158.322 518.577 162.047 516.82 165.188C515.117 168.275 512.722 170.643 509.635 172.293C506.601 173.943 503.061 174.768 499.016 174.768C495.024 174.768 491.485 173.943 488.398 172.293C485.31 170.643 482.889 168.275 481.132 165.188C479.429 162.047 478.577 158.322 478.577 154.01C478.577 149.646 479.429 145.92 481.132 142.833C482.889 139.746 485.31 137.377 488.398 135.727C491.485 134.077 495.024 133.252 499.016 133.252ZM499.016 141.396C496.993 141.396 495.264 141.875 493.827 142.833C492.443 143.738 491.378 145.122 490.633 146.984C489.888 148.847 489.515 151.189 489.515 154.01C489.515 156.831 489.888 159.173 490.633 161.036C491.378 162.899 492.443 164.309 493.827 165.268C495.264 166.172 496.993 166.625 499.016 166.625C500.985 166.625 502.662 166.172 504.046 165.268C505.483 164.309 506.574 162.899 507.319 161.036C508.064 159.173 508.437 156.831 508.437 154.01C508.437 151.189 508.064 148.847 507.319 146.984C506.574 145.122 505.483 143.738 504.046 142.833C502.662 141.875 500.985 141.396 499.016 141.396Z" fill="black"/>
<path d="M539.494 116.566V161.675C539.494 163.538 539.814 164.842 540.452 165.587C541.091 166.332 542.156 166.705 543.646 166.705C544.551 166.705 545.296 166.651 545.881 166.545C546.467 166.385 547.212 166.172 548.117 165.906L547.159 173.092C546.254 173.624 545.11 174.023 543.726 174.289C542.395 174.609 541.065 174.768 539.734 174.768C535.848 174.768 533.001 173.837 531.191 171.974C529.435 170.058 528.556 167.024 528.556 162.872V116.566H539.494Z" fill="black"/>
<path d="M572.644 133.252C576.689 133.252 580.229 134.077 583.263 135.727C586.35 137.377 588.745 139.746 590.448 142.833C592.204 145.92 593.083 149.646 593.083 154.01C593.083 158.322 592.204 162.047 590.448 165.188C588.745 168.275 586.35 170.643 583.263 172.293C580.229 173.943 576.689 174.768 572.644 174.768C568.652 174.768 565.113 173.943 562.025 172.293C558.938 170.643 556.517 168.275 554.76 165.188C553.057 162.047 552.205 158.322 552.205 154.01C552.205 149.646 553.057 145.92 554.76 142.833C556.517 139.746 558.938 137.377 562.025 135.727C565.113 134.077 568.652 133.252 572.644 133.252ZM572.644 141.396C570.621 141.396 568.892 141.875 567.454 142.833C566.071 143.738 565.006 145.122 564.261 146.984C563.516 148.847 563.143 151.189 563.143 154.01C563.143 156.831 563.516 159.173 564.261 161.036C565.006 162.899 566.071 164.309 567.454 165.268C568.892 166.172 570.621 166.625 572.644 166.625C574.613 166.625 576.29 166.172 577.674 165.268C579.111 164.309 580.202 162.899 580.947 161.036C581.692 159.173 582.065 156.831 582.065 154.01C582.065 151.189 581.692 148.847 580.947 146.984C580.202 145.122 579.111 143.738 577.674 142.833C576.29 141.875 574.613 141.396 572.644 141.396Z" fill="black"/>
<path d="M639.15 124.55L640.427 132.374C640.214 132.374 639.975 132.374 639.709 132.374C639.496 132.321 639.256 132.294 638.99 132.294C636.542 132.294 634.705 132.853 633.481 133.971C632.257 135.035 631.645 136.526 631.645 138.442L627.174 136.605C627.174 134.476 627.6 132.507 628.451 130.697C629.303 128.834 630.554 127.344 632.204 126.226C633.907 125.109 635.93 124.55 638.272 124.55C638.378 124.55 638.511 124.55 638.671 124.55C638.83 124.55 638.99 124.55 639.15 124.55ZM626.056 166.465C630.367 166.465 633.694 167.397 636.036 169.259C638.378 171.122 639.549 173.73 639.549 177.084C639.549 180.118 638.671 182.672 636.914 184.748C635.158 186.877 632.683 188.474 629.489 189.539C626.349 190.603 622.703 191.135 618.551 191.135C611.685 191.135 606.655 190.177 603.462 188.261C600.322 186.345 598.751 183.843 598.751 180.756C598.751 178.574 599.576 176.738 601.226 175.247C602.93 173.757 605.724 172.932 609.609 172.772L609.21 174.05C606.442 173.571 604.313 172.666 602.823 171.335C601.386 169.951 600.667 168.062 600.667 165.667C600.667 163.218 601.599 161.222 603.462 159.679C605.378 158.082 607.959 157.151 611.206 156.884L615.997 159.12H614.879C612.59 159.28 610.967 159.759 610.009 160.557C609.104 161.302 608.651 162.154 608.651 163.112C608.651 164.23 609.077 165.081 609.929 165.667C610.834 166.199 612.111 166.465 613.761 166.465H626.056ZM618.631 183.63C621.399 183.63 623.661 183.391 625.417 182.912C627.227 182.433 628.558 181.821 629.409 181.076C630.314 180.33 630.767 179.505 630.767 178.601C630.767 177.589 630.367 176.764 629.569 176.126C628.771 175.54 627.334 175.247 625.258 175.247H611.765C610.488 175.247 609.423 175.567 608.572 176.205C607.773 176.844 607.374 177.722 607.374 178.84C607.374 180.33 608.359 181.501 610.328 182.353C612.351 183.205 615.118 183.63 618.631 183.63ZM618.711 133.252C622.437 133.252 625.657 133.811 628.372 134.929C631.139 135.993 633.242 137.537 634.679 139.559C636.169 141.582 636.914 144.004 636.914 146.825C636.914 149.593 636.169 151.988 634.679 154.01C633.242 156.033 631.139 157.603 628.372 158.721C625.657 159.785 622.437 160.318 618.711 160.318C612.803 160.318 608.279 159.12 605.138 156.725C602.051 154.276 600.508 150.976 600.508 146.825C600.508 144.004 601.226 141.582 602.663 139.559C604.154 137.537 606.256 135.993 608.971 134.929C611.685 133.811 614.932 133.252 618.711 133.252ZM618.711 140.118C616.582 140.118 614.826 140.704 613.442 141.875C612.058 143.046 611.366 144.669 611.366 146.745C611.366 148.821 612.058 150.471 613.442 151.695C614.826 152.866 616.582 153.451 618.711 153.451C620.84 153.451 622.57 152.866 623.901 151.695C625.284 150.471 625.976 148.821 625.976 146.745C625.976 144.669 625.284 143.046 623.901 141.875C622.57 140.704 620.84 140.118 618.711 140.118Z" fill="black"/>
<path d="M684.225 134.051L668.097 176.445C666.82 180.064 665.383 182.939 663.786 185.068C662.242 187.197 660.433 188.74 658.357 189.698C656.334 190.656 653.913 191.135 651.092 191.135C649.016 191.135 647.1 190.869 645.343 190.337C643.64 189.858 642.15 189.219 640.872 188.421L643.188 180.517C644.199 181.315 645.263 181.874 646.381 182.193C647.499 182.566 648.776 182.752 650.213 182.752C651.704 182.752 652.981 182.433 654.046 181.794C655.163 181.155 656.095 179.878 656.84 177.962L658.197 174.529L653.806 164.15L641.591 134.051H653.726L661.311 158.002L663.387 165.986L665.862 157.523L673.127 134.051H684.225Z" fill="black"/>
<path d="M707.023 174.768C702.978 174.768 699.278 174.05 695.925 172.613C692.625 171.176 689.937 169.153 687.861 166.545L694.169 160.158C695.446 162.074 697.149 163.644 699.278 164.868C701.407 166.093 703.936 166.705 706.863 166.705C708.939 166.705 710.589 166.412 711.813 165.826C713.091 165.188 713.729 164.203 713.729 162.872C713.729 162.021 713.436 161.302 712.851 160.717C712.266 160.078 711.095 159.572 709.338 159.2L702.312 157.763C697.682 156.805 694.382 155.368 692.412 153.451C690.496 151.482 689.538 148.954 689.538 145.867C689.538 143.684 690.177 141.635 691.454 139.719C692.785 137.803 694.754 136.259 697.362 135.089C699.97 133.864 703.217 133.252 707.103 133.252C711.095 133.252 714.554 133.891 717.482 135.168C720.462 136.393 722.804 138.229 724.507 140.677L717.961 147.064C716.79 145.201 715.246 143.791 713.33 142.833C711.467 141.822 709.498 141.316 707.422 141.316C705.932 141.316 704.654 141.476 703.59 141.795C702.525 142.114 701.727 142.567 701.195 143.152C700.662 143.684 700.396 144.376 700.396 145.228C700.396 146.08 700.769 146.825 701.514 147.464C702.259 148.049 703.616 148.555 705.586 148.98L713.729 150.657C717.668 151.455 720.489 152.813 722.192 154.729C723.895 156.592 724.747 158.854 724.747 161.515C724.747 164.07 724.055 166.359 722.671 168.381C721.341 170.351 719.345 171.921 716.683 173.092C714.075 174.209 710.855 174.768 707.023 174.768Z" fill="black"/>
<path d="M481.561 50.1263V102H469.143L450.987 71.5046L446.507 63.0162H446.428L446.743 71.9762V102H436.997V50.1263H449.336L467.492 80.5432L471.972 89.1102H472.129L471.815 80.1502V50.1263H481.561Z" fill="#2C2C2C"/>
<path d="M249.606 50.1263V102H238.759V50.1263H249.606Z" fill="#2C2C2C"/>
<path d="M318.255 50.1263V102H305.837L287.681 71.5046L283.201 63.0162H283.123L283.437 71.9762V102H273.691V50.1263H286.031L304.186 80.5432L308.666 89.1102H308.824L308.509 80.1502V50.1263H318.255Z" fill="#2C2C2C"/>
<path d="M381.508 58.8505H353.527V72.0547H375.613V80.779H353.527V102H342.681V50.1263H381.508V58.8505Z" fill="#2C2C2C"/>
<path d="M516.833 50.1263V102H505.987V50.1263H516.833Z" fill="#2C2C2C"/>
<path d="M581.947 50.1263V58.8505H564.577V102H553.731V58.8505H536.282V50.1263H581.947Z" fill="#2C2C2C"/>
<path d="M602.049 102V50.1263H640.955V58.8505H612.896V71.7404H634.981V80.0716H612.896V93.2758H642.055V102H602.049Z" fill="#2C2C2C"/>
<path d="M412.911 50.1263V102H402.065V50.1263H412.911Z" fill="#2C2C2C"/>
<path d="M191.734 151.085L132.08 210.739C115.511 227.307 88.6488 227.307 72.0803 210.739L12.4264 151.085C-4.14213 134.516 -4.14213 107.654 12.4264 91.0854L72.0803 31.4315C88.6488 14.863 115.511 14.863 132.08 31.4315L191.734 91.0854C208.301 107.654 208.301 134.517 191.734 151.085Z" fill="#00D1FF"/>
<path d="M177.297 88.8102C177.297 94.6683 174.392 97.5973 168.585 97.5973H134.413V166.692C134.413 172.499 131.533 175.404 125.776 175.404C121.12 175.404 118.041 175.128 116.539 174.577C113.634 173.425 112.183 170.798 112.183 166.692V97.5973H78.2363C72.3783 97.5973 69.4492 94.6683 69.4492 88.8102C69.4492 81.801 72.3783 78.2964 78.2363 78.2964H168.584C174.393 78.2964 177.297 81.801 177.297 88.8102Z" fill="white"/>
<path d="M40.8805 166.692C40.8805 170.797 42.3322 173.425 45.2368 174.577C46.7385 175.127 49.8181 175.404 54.4738 175.404C60.2813 175.404 63.1859 172.499 63.1859 166.692V105.878H40.8799V166.692H40.8805Z" fill="white"/>
<path d="M63.1863 87.0079C63.1863 81.2004 60.2818 78.2964 54.4743 78.2964C49.7674 78.2964 46.7128 78.572 45.3121 79.1225C42.357 80.2743 40.8809 82.9033 40.8809 87.0079V97.5973H63.1868L63.1863 87.0079Z" fill="white"/>
<path d="M156.328 56.0278V22.0024L122.303 22.0024V56.0278L156.328 56.0278Z" fill="white"/>
<path d="M152.372 25.959H126.259V52.0719H152.372V25.959Z" fill="#2C2C2C"/>
<path d="M148.152 0H130.479V17.6725H148.152V0Z" fill="#2C2C2C"/>
<path d="M178.014 28.9919H160.342V46.6644H178.014V28.9919Z" fill="#2C2C2C"/>
<path d="M178.347 1.11841H160.675V18.7909H178.347V1.11841Z" fill="#2C2C2C"/>
</svg>
