<svg width="205" height="224" viewBox="0 0 205 224" fill="none" xmlns="http://www.w3.org/2000/svg">
<path d="M191.734 151.085L132.08 210.739C115.511 227.307 88.6488 227.307 72.0803 210.739L12.4264 151.085C-4.14213 134.516 -4.14213 107.654 12.4264 91.0854L72.0803 31.4315C88.6488 14.863 115.511 14.863 132.08 31.4315L191.734 91.0854C208.301 107.654 208.301 134.517 191.734 151.085Z" fill="#00D1FF"/>
<path d="M177.297 88.8102C177.297 94.6683 174.392 97.5973 168.585 97.5973H134.413V166.692C134.413 172.499 131.533 175.404 125.776 175.404C121.12 175.404 118.041 175.128 116.539 174.577C113.634 173.425 112.183 170.798 112.183 166.692V97.5973H78.2363C72.3783 97.5973 69.4492 94.6683 69.4492 88.8102C69.4492 81.801 72.3783 78.2964 78.2363 78.2964H168.584C174.393 78.2964 177.297 81.801 177.297 88.8102Z" fill="white"/>
<path d="M40.8805 166.692C40.8805 170.797 42.3322 173.425 45.2368 174.577C46.7385 175.127 49.8181 175.404 54.4738 175.404C60.2813 175.404 63.1859 172.499 63.1859 166.692V105.878H40.8799V166.692H40.8805Z" fill="white"/>
<path d="M63.1863 87.0079C63.1863 81.2004 60.2818 78.2964 54.4743 78.2964C49.7674 78.2964 46.7128 78.572 45.3121 79.1225C42.357 80.2743 40.8809 82.9033 40.8809 87.0079V97.5973H63.1868L63.1863 87.0079Z" fill="white"/>
<path d="M156.328 56.0278V22.0024L122.303 22.0024V56.0278L156.328 56.0278Z" fill="white"/>
<path d="M152.372 25.959H126.259V52.0719H152.372V25.959Z" fill="#2C2C2C"/>
<path d="M148.152 0H130.479V17.6725H148.152V0Z" fill="#2C2C2C"/>
<path d="M178.014 28.9919H160.342V46.6644H178.014V28.9919Z" fill="#2C2C2C"/>
<path d="M178.347 1.11841H160.675V18.7909H178.347V1.11841Z" fill="#2C2C2C"/>
</svg>
